<svg width="28" height="28" viewBox="0 0 28 28" fill="none" xmlns="http://www.w3.org/2000/svg">
<g clip-path="url(#clip0_2_5360)">
<path fill-rule="evenodd" clip-rule="evenodd" d="M12.9336 0.00676991H13.9727C14.9078 0.00130116 15.0555 0.0177074 15.4492 0.132551C15.6898 0.203645 16.0836 0.340364 16.3242 0.44427C16.6141 0.564583 17.2977 0.980207 18.3477 1.68568C19.2172 2.27083 21.2516 3.63802 22.8594 4.7263C25.3094 6.37786 25.8617 6.77708 26.2555 7.16537C26.518 7.4224 26.8625 7.83802 27.032 8.09505C27.1961 8.35208 27.4094 8.74583 27.5078 8.97005C27.6063 9.19427 27.7484 9.61537 27.9727 10.4193V23.0521L27.825 23.599C27.7375 23.8997 27.557 24.381 27.4203 24.6654C27.2836 24.9497 27.0648 25.3326 26.9391 25.513C26.8078 25.6935 26.5727 25.9833 26.4086 26.1638C26.2445 26.3388 25.9164 26.6341 25.6758 26.8146C25.4352 26.9951 24.9922 27.263 24.6914 27.4107C24.3414 27.5802 23.9094 27.7333 22.832 28.0013H5.16797L4.53906 27.8482C4.15078 27.7497 3.69141 27.5857 3.33594 27.4161C3.01875 27.2685 2.56484 26.9951 2.32422 26.8146C2.08359 26.6341 1.75547 26.3388 1.59141 26.1638C1.42734 25.9833 1.19219 25.6935 1.06094 25.513C0.935156 25.3326 0.716406 24.9497 0.579688 24.6654C0.442969 24.381 0.2625 23.8997 0.0273438 23.0521V10.474L0.153125 9.98177C0.224219 9.7138 0.360938 9.29271 0.453906 9.05208C0.552344 8.81146 0.776562 8.39037 0.951562 8.1224C1.1375 7.83802 1.47109 7.43333 1.74453 7.16537C2.14922 6.76615 2.81094 6.29583 6.5625 3.76927C8.95234 2.15599 11.0688 0.745051 11.2656 0.641145C11.4625 0.53177 11.9164 0.345832 12.2773 0.22552L12.9336 0.00676991ZM12.5508 2.61536C12.3703 2.6974 10.2922 4.07005 7.92969 5.66146C4.93281 7.67943 3.54375 8.6474 3.33594 8.86068C3.17188 9.03021 2.94766 9.31458 2.84375 9.48958C2.73984 9.67005 2.59219 9.9763 2.51562 10.1732L2.37891 10.5286V22.9427C2.59219 23.4896 2.73984 23.7958 2.84375 23.9708C2.94766 24.1458 3.18828 24.4411 3.36875 24.6271C3.55469 24.813 3.86094 25.0591 4.05234 25.1685C4.24375 25.2833 4.56094 25.431 4.75781 25.4966C5.05312 25.5951 5.27734 25.6169 6.04297 25.6333L6.97266 25.6552C7.03828 24.9279 7.09297 24.5286 7.14219 24.2935C7.18594 24.0638 7.28984 23.6865 7.36094 23.4622C7.4375 23.2326 7.59609 22.8552 7.71094 22.6146C7.82578 22.374 8.04453 21.9911 8.19766 21.7669C8.34531 21.5372 8.6625 21.149 8.89766 20.8974C9.13281 20.6458 9.53203 20.2794 9.78906 20.088C10.0461 19.8966 10.4891 19.6177 10.7734 19.4755C11.0578 19.3279 11.4789 19.1419 11.7031 19.0599C11.9273 18.9833 12.3594 18.863 12.6602 18.8029C13.0594 18.7154 13.4148 18.688 13.9727 18.6826C14.4922 18.6826 14.8969 18.7154 15.2305 18.781C15.4984 18.8302 15.9195 18.9396 16.1602 19.0161C16.4008 19.0872 16.8055 19.2568 17.0625 19.3826C17.3195 19.5083 17.7242 19.7435 17.9648 19.9076C18.2055 20.0661 18.6484 20.449 18.9492 20.7497C19.25 21.056 19.6273 21.499 19.7859 21.7396C19.9445 21.9802 20.1742 22.374 20.2891 22.6146C20.4039 22.8552 20.5625 23.2326 20.6391 23.4622C20.7102 23.6865 20.8141 24.0638 20.8578 24.2935C20.907 24.5286 20.9617 24.9279 20.9891 25.1904L21.0273 25.6552C22.7227 25.6169 22.9469 25.5951 23.2422 25.4966C23.4391 25.431 23.7563 25.2833 23.9477 25.1685C24.1391 25.0591 24.4453 24.813 24.6313 24.6271C24.8117 24.4466 25.0578 24.1349 25.1727 23.9435C25.2875 23.7521 25.4352 23.4349 25.5008 23.2435L25.6211 22.888C25.643 13.3669 25.6266 10.7966 25.5992 10.638C25.5719 10.4849 25.4898 10.2169 25.4242 10.0365C25.3586 9.85599 25.1727 9.5224 25.0195 9.29818C24.8609 9.05755 24.6039 8.77865 24.418 8.62552C24.2375 8.48333 22.2195 7.10521 19.9336 5.56302C17.6477 4.02083 15.6297 2.6974 15.4492 2.61536C15.2688 2.53333 14.9734 2.42943 14.793 2.38021C14.607 2.33099 14.257 2.29818 13.9727 2.29818C13.7047 2.30365 13.3438 2.34193 13.1797 2.38568C13.0156 2.42943 12.7312 2.53333 12.5508 2.61536ZM12.4414 21.2693C12.2609 21.3349 11.9547 21.4771 11.7578 21.581C11.5609 21.6904 11.2547 21.8927 11.0797 22.0294C10.9047 22.1716 10.6094 22.456 10.4344 22.6693C10.243 22.8935 9.99687 23.2763 9.83828 23.599C9.69062 23.8997 9.53203 24.2935 9.48281 24.474C9.43906 24.6544 9.38437 24.9935 9.3625 25.2232L9.32422 25.6497H18.6758C18.6156 24.9935 18.5445 24.6216 18.4844 24.4029C18.4242 24.1841 18.282 23.8177 18.1617 23.5826C18.0469 23.3529 17.8062 22.9755 17.6258 22.7513C17.4508 22.5216 17.1445 22.2154 16.9477 22.0568C16.7563 21.9036 16.4117 21.6794 16.1875 21.5536C15.9633 21.4333 15.5531 21.2693 15.2852 21.1927C14.9187 21.0833 14.6344 21.0396 14.1641 21.0232C13.7594 21.0122 13.3984 21.0286 13.1523 21.0779C12.9445 21.1216 12.6219 21.2091 12.4414 21.2693ZM14.2461 8.18255C14.5141 8.19896 14.9242 8.25912 15.1484 8.3138C15.3727 8.37396 15.8156 8.54896 16.1328 8.70755C16.5867 8.93724 16.8 9.0849 17.1609 9.4349C17.418 9.67552 17.7352 10.0419 17.8773 10.2552C18.0195 10.463 18.2109 10.8185 18.3039 11.0482C18.3969 11.2724 18.5172 11.6661 18.5719 11.9232C18.643 12.2732 18.6539 12.5466 18.632 13.0443C18.6156 13.4654 18.5609 13.8427 18.4898 14.0943C18.4242 14.313 18.282 14.6849 18.1617 14.9146C18.0469 15.1497 17.8062 15.5216 17.6258 15.7513C17.4508 15.9755 17.1445 16.2872 16.9477 16.4404C16.7563 16.5935 16.4117 16.8232 16.1875 16.9435C15.9633 17.0638 15.5531 17.2333 15.2852 17.3154C14.8477 17.4466 14.7055 17.463 14 17.463C13.2945 17.463 13.1523 17.4466 12.7148 17.3154C12.4469 17.2333 12.0367 17.0638 11.8125 16.9435C11.5883 16.8232 11.2438 16.5935 11.0523 16.4404C10.8555 16.2872 10.5492 15.9755 10.3742 15.7513C10.1937 15.5216 9.94766 15.1443 9.82734 14.9036C9.70703 14.663 9.55391 14.231 9.48281 13.9466C9.38437 13.5638 9.35156 13.274 9.35156 12.8638C9.35156 12.5576 9.38984 12.1146 9.43906 11.8794C9.48828 11.6497 9.59766 11.2833 9.68516 11.0755C9.76719 10.8622 9.94219 10.5286 10.068 10.3372C10.1938 10.1404 10.4617 9.81224 10.6586 9.60443C10.8555 9.39662 11.1562 9.13958 11.3203 9.02474C11.4844 8.9099 11.7688 8.74583 11.9492 8.65287C12.1297 8.5599 12.4523 8.43412 12.6602 8.37396C12.8734 8.30833 13.2016 8.23177 13.3984 8.20443C13.5953 8.17708 13.9781 8.17162 14.2461 8.18255ZM12.8953 10.7802C12.7641 10.8458 12.5234 11.0372 12.3539 11.2068C12.1898 11.3763 11.9875 11.6443 11.9109 11.8138C11.8289 11.9779 11.7414 12.2732 11.7031 12.4701C11.6539 12.738 11.6539 12.913 11.7031 13.181C11.7359 13.3724 11.818 13.6568 11.8891 13.8099C11.9547 13.9576 12.1187 14.2036 12.25 14.3458C12.3867 14.4935 12.5945 14.6849 12.7148 14.7669C12.8352 14.849 13.0867 14.9693 13.2781 15.0349C13.4859 15.106 13.7594 15.1497 13.9891 15.1497C14.1914 15.1497 14.4922 15.1115 14.6562 15.0622C14.8203 15.013 15.0555 14.9146 15.1758 14.8435C15.2961 14.7779 15.5258 14.581 15.6844 14.4115C15.8375 14.2474 16.0289 13.9794 16.1 13.8208C16.1766 13.6622 16.2641 13.3724 16.2969 13.181C16.3461 12.913 16.3461 12.738 16.2969 12.4701C16.2586 12.2732 16.1711 11.9779 16.0891 11.8138C16.0125 11.6443 15.8102 11.3763 15.6461 11.2068C15.4766 11.0372 15.2359 10.8458 15.1102 10.7802C14.9789 10.7146 14.7328 10.6271 14.5633 10.5833C14.3883 10.5341 14.1258 10.5013 13.9727 10.5013C13.825 10.5068 13.568 10.5396 13.4148 10.5833C13.2563 10.6271 13.0211 10.7146 12.8953 10.7802Z" fill="#666870"/>
</g>
<defs>
<clipPath id="clip0_2_5360">
<rect width="28" height="28" fill="white"/>
</clipPath>
</defs>
</svg>
