<svg width="28" height="28" viewBox="0 0 28 28" fill="none" xmlns="http://www.w3.org/2000/svg">
<g clip-path="url(#clip0_2_5352)">
<path d="M4.38351 1.01821C4.46992 1.01821 4.55687 1.01766 4.64328 1.01712C4.87953 1.01657 5.11578 1.01657 5.35148 1.01712C5.60687 1.01766 5.86226 1.01657 6.11765 1.01602C6.61695 1.01548 7.11679 1.01493 7.61609 1.01548C8.02242 1.01548 8.4282 1.01548 8.83453 1.01548C8.92148 1.01548 8.92148 1.01548 9.01007 1.01548C9.12765 1.01493 9.24523 1.01493 9.36335 1.01493C10.4653 1.01438 11.5678 1.01438 12.6703 1.01493C13.6777 1.01548 14.6844 1.01493 15.6918 1.01384C16.7276 1.0122 17.7634 1.01165 18.7991 1.0122C19.3799 1.0122 19.9612 1.0122 20.542 1.0111C21.0364 1.01055 21.5308 1.01055 22.0252 1.01165C22.2773 1.01165 22.5294 1.0122 22.7809 1.0111C23.0123 1.01055 23.2436 1.01055 23.4749 1.01165C23.558 1.01165 23.6412 1.01165 23.7243 1.0111C24.4577 1.00618 25.1834 1.11337 25.8363 1.46665C25.8724 1.48524 25.9091 1.50438 25.9462 1.52352C26.2366 1.67938 26.4969 1.85712 26.7425 2.0786C26.7742 2.1054 26.8065 2.13274 26.8393 2.16063C27.4884 2.74907 27.9473 3.70009 28.0102 4.57126C28.0145 4.72876 28.0151 4.88626 28.0145 5.0443C28.0151 5.10446 28.0151 5.16462 28.0156 5.22641C28.0162 5.42712 28.0162 5.62782 28.0162 5.82852C28.0162 5.97235 28.0167 6.11673 28.0173 6.2611C28.0178 6.61165 28.0184 6.96219 28.0184 7.31274C28.0184 7.59821 28.0189 7.88313 28.0189 8.1686C28.02 8.97852 28.0205 9.78844 28.0205 10.5984C28.0205 10.664 28.0205 10.664 28.0205 10.7307C28.0205 10.7745 28.0205 10.8182 28.0205 10.8631C28.0205 11.5702 28.0211 12.2773 28.0227 12.9844C28.0244 13.7112 28.0255 14.4385 28.0249 15.1659C28.0249 15.5738 28.0255 15.9818 28.0266 16.3892C28.0277 16.7365 28.0277 17.0843 28.0271 17.4316C28.0266 17.6082 28.0266 17.7848 28.0277 17.962C28.0331 19.2614 27.8647 20.3256 26.9612 21.3286C26.9306 21.3631 26.9005 21.3981 26.8694 21.4336C26.2481 22.1035 25.2802 22.5323 24.3729 22.5952C24.0218 22.6077 23.6702 22.6023 23.3185 22.5984C23.2009 22.5979 23.0834 22.5973 22.9652 22.5968C22.7131 22.5957 22.4616 22.5941 22.2094 22.5919C21.8097 22.5891 21.4105 22.5881 21.0112 22.587C20.874 22.587 20.7367 22.5864 20.6 22.5864C20.5311 22.5864 20.4622 22.5859 20.3916 22.5859C19.463 22.5837 18.5344 22.5804 17.6059 22.5727C16.978 22.5678 16.3502 22.5656 15.7219 22.5662C15.3905 22.5662 15.0591 22.5651 14.7271 22.5607C14.4154 22.5569 14.1031 22.5558 13.7914 22.558C13.6777 22.558 13.5634 22.5569 13.4496 22.5541C12.6359 22.5372 12.1798 22.71 11.5804 23.2651C11.4382 23.3936 11.2862 23.5068 11.1325 23.6222C10.8525 23.8371 10.5736 24.0542 10.2952 24.2713C9.93484 24.5519 9.57281 24.8308 9.20914 25.1075C8.96796 25.2918 8.72789 25.4772 8.48835 25.6642C8.28437 25.8239 8.07984 25.9825 7.87531 26.1411C7.83484 26.1723 7.79437 26.2034 7.75281 26.2357C7.63578 26.3265 7.51765 26.4167 7.40007 26.507C7.36507 26.5338 7.33062 26.5606 7.29453 26.5884C6.9664 26.8373 6.66125 27.0079 6.23468 26.9614C5.92406 26.8493 5.72609 26.6552 5.57843 26.3598C5.56968 26.2242 5.56421 26.0897 5.56093 25.9541C5.55929 25.8917 5.55929 25.8917 5.55765 25.8283C5.55382 25.6921 5.55054 25.5559 5.54726 25.4198C5.54617 25.3738 5.54507 25.3273 5.54398 25.2798C5.52156 24.3818 5.51718 23.4844 5.52375 22.5864C5.46687 22.5875 5.41 22.5886 5.35148 22.5897C5.13656 22.5935 4.92218 22.5963 4.70726 22.5984C4.61484 22.5995 4.52296 22.6006 4.43054 22.6028C3.6321 22.6192 2.8796 22.5459 2.16375 22.1593C2.12765 22.1402 2.09156 22.1216 2.05382 22.1019C1.76343 21.946 1.50312 21.7683 1.25812 21.5473C1.22585 21.52 1.19359 21.4932 1.16078 21.4653C0.511636 20.8763 0.0533548 19.9259 -0.0100827 19.0547C-0.0144577 18.8966 -0.0150047 18.7391 -0.0144578 18.5816C-0.0150047 18.5215 -0.0150049 18.4613 -0.0155518 18.399C-0.0160986 18.1988 -0.0160986 17.9981 -0.0155518 17.7974C-0.0160986 17.6531 -0.0166453 17.5087 -0.0166453 17.3648C-0.0177391 17.0143 -0.0182859 16.6638 -0.0182859 16.3132C-0.0182859 16.0277 -0.018286 15.7423 -0.0188329 15.4573C-0.0199266 14.6474 -0.0204733 13.837 -0.0199265 13.027C-0.0199265 12.9838 -0.0199265 12.9401 -0.0199265 12.8952C-0.0199265 12.8515 -0.0199265 12.8077 -0.0199265 12.7629C-0.0199265 12.0558 -0.0210204 11.3487 -0.022661 10.6416C-0.0243016 9.91423 -0.0248485 9.18688 -0.0248485 8.45954C-0.0248485 8.05212 -0.0253954 7.64415 -0.0264891 7.23618C-0.0275829 6.88891 -0.027583 6.54165 -0.0270361 6.19438C-0.0264892 6.01719 -0.0264893 5.84055 -0.0275831 5.66391C-0.0330518 4.36399 0.135386 3.29977 1.03937 2.29735C1.06945 2.26235 1.09953 2.2279 1.1307 2.19235C1.98109 1.2747 3.18695 1.01274 4.38351 1.01821ZM2.2764 3.56555C1.95921 3.94454 1.74375 4.45204 1.74265 4.95079C1.74265 5.00001 1.7421 5.04977 1.7421 5.10063C1.7421 5.15477 1.7421 5.20946 1.7421 5.26524C1.7421 5.32321 1.74156 5.38063 1.74156 5.44024C1.74101 5.63438 1.74046 5.82907 1.74046 6.02321C1.73992 6.16212 1.73992 6.30102 1.73937 6.44048C1.73828 6.85829 1.73773 7.2761 1.73718 7.69391C1.73718 7.89079 1.73664 8.08766 1.73664 8.28454C1.73554 8.93915 1.73445 9.5943 1.73445 10.2489C1.7339 10.419 1.7339 10.5891 1.7339 10.7586C1.7339 10.8013 1.7339 10.8434 1.7339 10.8866C1.73335 11.5702 1.73226 12.2538 1.73007 12.9373C1.72843 13.6395 1.72734 14.3417 1.72734 15.0439C1.72734 15.4382 1.72679 15.832 1.72515 16.2263C1.72406 16.597 1.72351 16.9684 1.7246 17.3391C1.7246 17.4748 1.72406 17.6109 1.72351 17.7466C1.71859 18.6664 1.72023 19.4791 2.40164 20.1785C3.27664 20.977 4.38023 20.8605 5.49367 20.8599C5.6796 20.8605 5.86554 20.8616 6.05148 20.8632C6.10781 20.8632 6.16468 20.8627 6.2232 20.8621C6.565 20.8654 6.7821 20.8955 7.055 21.1098C7.27156 21.3981 7.24968 21.7333 7.25898 22.08C7.26117 22.1413 7.26335 22.2031 7.26554 22.2659C7.2721 22.4617 7.27812 22.6575 7.28359 22.8527C7.28796 22.9856 7.29289 23.1185 7.29726 23.2514C7.3082 23.5768 7.31859 23.9016 7.32843 24.227C7.4739 24.1554 7.60296 24.0821 7.73257 23.9842C7.76757 23.9585 7.80257 23.9323 7.83812 23.9049C7.87531 23.877 7.9125 23.8491 7.95023 23.8202C7.98906 23.7912 8.02734 23.7616 8.06726 23.7316C8.38281 23.4931 8.69398 23.2492 9.0046 23.0037C9.20695 22.844 9.41093 22.687 9.61601 22.5306C9.78882 22.3977 9.96109 22.2638 10.1334 22.1298C10.5337 21.8159 10.9351 21.5041 11.3441 21.2023C11.395 21.164 11.395 21.164 11.4469 21.1257C11.7527 20.9015 11.9774 20.8829 12.3471 20.8834C12.4215 20.8834 12.4215 20.8834 12.4975 20.8829C12.6643 20.8823 12.8311 20.8823 12.9984 20.8823C13.1177 20.8823 13.2374 20.8818 13.3566 20.8813C13.6142 20.8807 13.8723 20.8802 14.1299 20.8802C14.5379 20.8796 14.9459 20.8785 15.3538 20.8774C15.9264 20.8752 16.499 20.8741 17.0716 20.8725C17.1257 20.8725 17.1257 20.8725 17.1815 20.872C17.7327 20.8709 18.2834 20.8698 18.8347 20.8692C19.4751 20.8681 20.116 20.8665 20.7564 20.8643C21.0949 20.8632 21.434 20.8621 21.7725 20.8621C22.0919 20.8621 22.4112 20.861 22.7301 20.8599C22.8471 20.8594 22.9636 20.8594 23.0806 20.8594C24.03 20.8605 24.8634 20.8435 25.6094 20.178C25.9944 19.7826 26.2563 19.2335 26.2574 18.6752C26.258 18.6008 26.258 18.6008 26.258 18.5248C26.258 18.4706 26.258 18.4165 26.258 18.3607C26.2585 18.2738 26.2585 18.2738 26.2585 18.1852C26.2596 17.991 26.2596 17.7969 26.2596 17.6027C26.2602 17.4633 26.2607 17.3244 26.2607 17.1855C26.2618 16.7677 26.2623 16.3498 26.2629 15.932C26.2634 15.7352 26.2634 15.5383 26.264 15.3414C26.2645 14.6863 26.2656 14.0316 26.2662 13.3765C26.2662 13.2064 26.2662 13.0369 26.2662 12.8668C26.2662 12.8247 26.2662 12.7826 26.2662 12.7388C26.2667 12.0552 26.2684 11.3722 26.27 10.6886C26.2716 9.98641 26.2727 9.28368 26.2727 8.58149C26.2733 8.18774 26.2733 7.79344 26.2749 7.39969C26.276 7.02837 26.2766 6.65758 26.276 6.2868C26.276 6.15063 26.276 6.01501 26.2771 5.87883C26.2815 4.95954 26.2798 4.14688 25.5984 3.44743C24.9198 2.82782 24.1552 2.76384 23.2622 2.76876C23.1785 2.76821 23.0948 2.76821 23.0117 2.76766C22.7842 2.76712 22.5567 2.76766 22.3292 2.76821C22.0826 2.76821 21.8365 2.76766 21.5904 2.76712C21.1091 2.76657 20.6273 2.76657 20.1461 2.76712C19.7545 2.76766 19.363 2.76766 18.9719 2.76766C18.9156 2.76766 18.8598 2.76766 18.8024 2.76712C18.6892 2.76712 18.5755 2.76712 18.4623 2.76712C17.3997 2.76657 16.3377 2.76712 15.2751 2.76821C14.3645 2.76876 13.454 2.76876 12.5434 2.76821C11.4847 2.76712 10.4265 2.76657 9.36773 2.76712C9.25453 2.76712 9.14132 2.76766 9.02867 2.76766C8.97289 2.76766 8.9171 2.76766 8.86023 2.76766C8.46921 2.76766 8.07874 2.76766 7.68773 2.76712C7.2114 2.76657 6.73453 2.76657 6.2582 2.76766C6.01539 2.76821 5.77257 2.76821 5.52976 2.76766C5.30664 2.76712 5.08406 2.76766 4.86093 2.76821C4.78109 2.76821 4.7007 2.76821 4.62085 2.76821C3.70429 2.76384 2.93593 2.88743 2.2764 3.56555Z" fill="#666870"/>
</g>
<defs>
<clipPath id="clip0_2_5352">
<rect width="28" height="28" fill="white"/>
</clipPath>
</defs>
</svg>
