<svg width="28" height="28" viewBox="0 0 28 28" fill="none" xmlns="http://www.w3.org/2000/svg">
<path fill-rule="evenodd" clip-rule="evenodd" d="M13.9727 1.15497C14.5031 1.1495 14.8203 1.17684 15.2305 1.26434C15.5312 1.3245 15.9906 1.45028 16.2586 1.53778C16.5211 1.62528 16.9148 1.78387 17.1281 1.89325C17.3469 2.00262 17.7133 2.2159 17.9375 2.36903C18.1617 2.52215 18.6102 2.90497 18.9273 3.22215C19.2445 3.53934 19.6273 3.98778 19.7805 4.212C19.9336 4.43622 20.1414 4.79715 20.2453 5.00497C20.3547 5.21278 20.5133 5.59559 20.6062 5.85262C20.6937 6.10965 20.8141 6.52528 20.8687 6.78231C20.9453 7.12684 20.9727 7.47684 20.9727 8.1495C20.9727 8.79481 20.9453 9.17762 20.8797 9.48934C20.825 9.72997 20.7211 10.1237 20.6391 10.3643C20.557 10.605 20.382 11.0261 20.2453 11.294C20.1141 11.562 19.9281 11.8956 19.8352 12.0323C19.7422 12.169 19.518 12.4643 19.332 12.6886C19.1461 12.9128 18.8398 13.23 18.3203 13.6729L18.55 13.7659C18.6813 13.8151 19.0422 13.9901 19.3594 14.1542C19.6766 14.3182 20.1305 14.5807 20.3711 14.7339C20.6117 14.8925 21 15.1714 21.2297 15.3573C21.4648 15.5432 21.8422 15.8768 22.0719 16.0901C22.3016 16.3089 22.6844 16.7245 22.925 17.0089C23.1656 17.2932 23.5156 17.7636 23.7016 18.0479C23.893 18.3323 24.1719 18.8026 24.325 19.087C24.4727 19.3714 24.7133 19.8909 24.85 20.2354C24.9867 20.58 25.1836 21.1979 25.2875 21.6026C25.3914 22.0073 25.5172 22.6472 25.5664 23.0245C25.6211 23.4018 25.6703 24.1128 25.6867 24.6104C25.7031 25.1682 25.6922 25.6276 25.6539 25.8136C25.6211 25.9831 25.5227 26.2182 25.4297 26.344C25.3312 26.4917 25.1617 26.6339 24.7188 26.8526H3.28125L3.01875 26.7214C2.87656 26.6503 2.69609 26.519 2.60859 26.4206C2.52656 26.3276 2.42266 26.1198 2.37891 25.9612C2.32422 25.7716 2.29688 25.4399 2.29688 24.9659C2.29688 24.5776 2.33516 23.9214 2.37891 23.5167C2.42266 23.112 2.49922 22.5706 2.54844 22.3136C2.59766 22.0565 2.71797 21.5643 2.81641 21.2198C2.91484 20.8753 3.12813 20.2847 3.29219 19.9073C3.45078 19.53 3.7625 18.9284 3.98125 18.5675C4.19453 18.2065 4.51172 17.7198 4.68672 17.4901C4.86172 17.2604 5.21172 16.8448 5.46875 16.5659C5.72578 16.287 6.16875 15.8659 6.45312 15.6253C6.7375 15.3847 7.24609 15.0128 7.57422 14.794C7.90234 14.5753 8.42188 14.2745 8.72266 14.1214C9.02344 13.9682 9.3625 13.8097 9.67969 13.6729L9.3625 13.3886C9.19297 13.2354 8.91953 12.9565 8.75547 12.7761C8.59141 12.5901 8.34531 12.2675 8.20312 12.0597C8.06094 11.8464 7.85313 11.4964 7.74375 11.2776C7.63438 11.0643 7.47578 10.6706 7.38828 10.4026C7.30078 10.1401 7.18047 9.71903 7.12578 9.462C7.06016 9.1284 7.03281 8.75653 7.03281 8.1495C7.03281 7.54246 7.06016 7.17059 7.12578 6.837C7.18047 6.57997 7.28984 6.18621 7.36641 5.962C7.4375 5.73778 7.58516 5.3659 7.68906 5.14168C7.79844 4.91747 8.02266 4.52372 8.19219 4.26668C8.36172 4.00965 8.71172 3.58309 8.96875 3.32059C9.22578 3.05262 9.59219 2.71356 9.78906 2.57137C9.98594 2.42372 10.3141 2.20497 10.5273 2.08465C10.7406 1.95887 11.1562 1.762 11.457 1.64715C11.7578 1.52684 12.2883 1.36825 12.6328 1.29715C13.0977 1.19872 13.4477 1.16043 13.9727 1.15497ZM12.4414 3.7745C12.2609 3.83465 11.9766 3.96043 11.8125 4.0534C11.6484 4.1409 11.3422 4.34325 11.1344 4.50184C10.9211 4.65497 10.6094 4.96122 10.4344 5.16903C10.2594 5.37684 10.0078 5.75965 9.87656 6.01668C9.73984 6.27372 9.58125 6.66747 9.51562 6.89168C9.43906 7.15965 9.38438 7.52606 9.36797 7.95809C9.34609 8.45575 9.35703 8.72372 9.42812 9.07918C9.48281 9.33622 9.59766 9.71903 9.67969 9.92684C9.76719 10.1347 9.94219 10.4682 10.068 10.6651C10.1883 10.862 10.4563 11.1901 10.6531 11.3925C10.8555 11.6003 11.1672 11.8682 11.3477 11.994C11.5281 12.1143 11.8453 12.3003 12.0586 12.3987C12.2719 12.4972 12.6383 12.6284 12.8789 12.694C13.218 12.7815 13.475 12.8089 14 12.8089C14.5195 12.8089 14.7875 12.7815 15.1211 12.694C15.3617 12.6284 15.7281 12.4972 15.9414 12.3987C16.1547 12.3003 16.4719 12.1143 16.6523 11.994C16.8328 11.8737 17.1445 11.6003 17.3414 11.3979C17.5383 11.1901 17.7734 10.9112 17.8664 10.7745C17.9594 10.6378 18.0961 10.4026 18.1672 10.255C18.2438 10.1018 18.375 9.77372 18.4625 9.51668C18.6047 9.09012 18.6156 8.98075 18.6156 8.20418C18.6211 7.47137 18.6047 7.29637 18.4953 6.91903C18.4242 6.6784 18.2602 6.27372 18.1289 6.01668C17.9922 5.75965 17.757 5.39325 17.593 5.19637C17.4344 4.9995 17.1445 4.71512 16.9477 4.562C16.7562 4.4034 16.4117 4.17918 16.1875 4.05887C15.9633 3.93309 15.5586 3.76903 15.2852 3.69247C14.9187 3.58309 14.6344 3.53934 14.1641 3.52293C13.7594 3.512 13.3984 3.5284 13.1523 3.57762C12.9391 3.62137 12.6219 3.70887 12.4414 3.7745ZM12.1133 15.3682C11.8125 15.4284 11.3203 15.5651 11.0195 15.6636C10.7188 15.7675 10.2375 15.9589 9.95312 16.0956C9.66875 16.2323 9.17656 16.5167 8.85938 16.7245C8.54219 16.9323 8.07734 17.2878 7.82578 17.5065C7.56875 17.7307 7.19141 18.1081 6.98359 18.3487C6.77578 18.5893 6.43125 19.0432 6.22344 19.3604C6.01016 19.6776 5.73125 20.1589 5.60547 20.4268C5.47422 20.6948 5.27734 21.1761 5.17344 21.4932C5.06953 21.8104 4.93281 22.3026 4.87266 22.587C4.8125 22.8714 4.73594 23.3909 4.70312 23.7354C4.67578 24.08 4.64844 24.3972 4.64844 24.4354C4.64844 24.4847 6.55703 24.5011 14 24.5011H23.3516C23.3023 23.8011 23.2641 23.4128 23.2367 23.1886C23.2039 22.9643 23.1219 22.5432 23.0508 22.2589C22.9797 21.9745 22.843 21.5151 22.7445 21.2472C22.6461 20.9792 22.4438 20.5198 22.2961 20.2354C22.1484 19.9511 21.8859 19.5081 21.7109 19.2511C21.5359 18.994 21.2133 18.5784 20.9891 18.3268C20.7703 18.0698 20.393 17.6925 20.1523 17.4847C19.9117 17.2768 19.4578 16.9323 19.1406 16.7245C18.8234 16.5112 18.3477 16.2323 18.0742 16.1011C17.8008 15.9753 17.2867 15.7675 16.9258 15.6472C16.5648 15.5268 15.9852 15.3792 15.6406 15.319C15.2961 15.2589 14.7055 15.1987 14.3281 15.1878C13.9508 15.1714 13.4258 15.1768 13.1523 15.2042C12.8789 15.2315 12.4141 15.3026 12.1133 15.3682Z" fill="#666870"/>
</svg>
