<svg width="24" height="24" viewBox="0 0 24 24" fill="none" xmlns="http://www.w3.org/2000/svg">
<path d="M22.8 21.8C21 20 19.2 18.2 17.3 16.4C17.2 16.3 17.2 16.2 17.3 16.1C17.5 15.9 17.6 15.7 17.8 15.6C18.7 14.4 19.3 13 19.5 11.5C19.7 10.4 19.6 9.3 19.4 8.3C19 6.5 18.2 5 17 3.8C15.6 2.3 13.9 1.4 11.9 1.1C11.5 1 11.3 1 11 1H10.7C10.6 1 10.5 1 10.4 1H10C9.9 1 9.8 1 9.7 1H9.4C9.2 1 8.9 1 8.6 1C6.9 1.3 5.4 2 4.1 3.2C2.6 4.4 1.6 6 1.2 7.9C1 8.3 1 8.8 1 9.3V9.6C1 9.7 1 9.8 1 9.9V10.2C1 10.3 1 10.4 1 10.5V10.9V11C1 11.5 1.1 11.9 1.2 12.4C1.9 14.8 3.3 16.7 5.4 18C7.4 19.2 9.6 19.6 11.8 19.2C13.3 18.9 14.6 18.4 15.8 17.4C15.9 17.3 16 17.3 16.1 17.4C17.9 19.2 19.7 21 21.5 22.8C21.6 22.9 21.6 22.9 21.7 23C22.1 23.3 22.7 23.1 22.8 22.6C23.1 22.2 23 22 22.8 21.8ZM15 16.3C14.1 17 13 17.5 11.8 17.7C9.6 18.1 7.5 17.7 5.6 16.4C4.2 15.4 3.3 14.1 2.8 12.5C2.4 11.4 2.3 10.2 2.5 9C2.8 7.3 3.5 5.9 4.7 4.7C5.7 3.7 7 2.9 8.4 2.6C11.7 1.9 14.5 2.9 16.6 5.5C17.7 6.8 18.1 8.4 18.2 10.4C18 12.7 17 14.7 15 16.3Z" fill="#DF146D"/>
</svg>
